<svg width="24" height="24" viewBox="0 0 24 24" fill="none" xmlns="http://www.w3.org/2000/svg">
<path fill-rule="evenodd" clip-rule="evenodd" d="M9.5 7.30005C10.4335 5.62543 12 2.80005 13 1.30005H14C15.796 3.09605 17.6878 5.45753 18.9291 7.61358C20.1651 9.76035 21 12.0607 21 14.3C21 18.8827 17.5 22.3 14 22.3L13.5 21.3C15 20.8 16 19.3 16 17.3C16 14.6603 13.4207 11.7502 12 10.3C10.5793 11.7502 8 14.8 8 17.3C8 19.3 9.5 20.8 10.5 21.3L10 22.3C6.5 22.3 3 18.8827 3 14.3C3 9.95673 5.47583 6.33228 7 4.30005H8L9.5 7.30005Z" fill="#21201F"/>
</svg>
